<?xml version="1.0" encoding="utf-8"?>
<svg
  width="24"
  height="24"
  style="fill:#b7b7b7"
>
  <path d="M20.398 5.016l-3.785-2.91c-1.046-0.805-2.562-0.607-3.368 0.438l-10.080 13.076c-0.805 1.045-0.608 2.558 0.438 3.364l3.784 2.91c1.046 0.805 2.562 0.607 3.368-0.438l10.081-13.076c0.805-1.045 0.608-2.558-0.438-3.364zM10.258 19.76l-0.644 0.817c-0.182 0.236-0.462 0.372-0.767 0.372-0.149 0-0.371-0.035-0.582-0.197l-3.784-2.91c-0.202-0.155-0.33-0.38-0.364-0.636s0.034-0.506 0.188-0.707l0.644-0.817c0.182-0.236 0.462-0.373 0.768-0.373 0.149 0 0.371 0.035 0.582 0.197l3.785 2.91c0.202 0.155 0.33 0.38 0.364 0.636 0.031 0.256-0.036 0.506-0.191 0.708z"/>
</svg>
