<?xml version="1.0" encoding="utf-8"?>
<svg
  width="24"
  height="24"
  style="fill:#b7b7b7"
>
  <path d="m 5.4337506,4.5594533 5.0000004,5.9999997 4.9,-5.9999997 z"/>
  <path d="m 10.333751,13.559453 -4.9000004,6 H 15.433751 Z m -2.8000004,5 2.8000004,-3.4 3,3.4 z"/>
  <path d="m 14.433751,11.559453 h 1 v 1 h -1 z"/>
  <path d="m 16.433751,11.559453 h 1 v 1 h -1 z"/>
  <path d="m 12.433751,11.559453 h 1 v 1 h -1 z"/>
  <path d="m 10.433751,11.559453 h 1 v 1 h -1 z"/>
  <path d="m 8.4337506,11.559453 h 1 v 1 h -1 z"/>
  <path d="m 6.4337506,11.559453 h 1 v 1 h -1 z"/>
  <path d="m 4.4337506,11.559453 h 1 v 1 h -1 z"/>
  <path d="m 19.433751,12.059453 v 0 c 0,1.3 -0.7,2.6 -1.9,3.6 l -1.1,-1.1 v 3 h 3 l -1.2,-1.2 c 1.4,-1.2 2.2,-2.7 2.2,-4.3 0,0 0,0 0,0 0,-1.9 -1,-3.5999997 -2.9,-4.8999997 l -0.6,0.8 c 1.6,1.1 2.5,2.4999997 2.5,4.0999997 z"/>
</svg>
