<?xml version="1.0" encoding="utf-8"?>
<svg
  width="24"
  height="24"
  style="fill:#b7b7b7"
>
  <path d="m 4.4745763,18.559322 5.9999997,-5 -5.9999997,-4.9 z"/>
  <path d="m 13.474576,13.659322 6,4.9 v -10 z m 5,2.8 -3.4,-2.8 3.4,-3 z"/>
  <path d="m 11.474576,8.559322 h 1 v 1 h -1 z"/>
  <path d="m 11.474576,6.559322 h 1 v 1 h -1 z"/>
  <path d="m 11.474576,10.559322 h 1 v 1 h -1 z"/>
  <path d="m 11.474576,12.559322 h 1 v 1 h -1 z"/>
  <path d="m 11.474576,14.559322 h 1 v 1 h -1 z"/>
  <path d="m 11.474576,16.559322 h 1 v 1 h -1 z"/>
  <path d="m 11.474576,18.559322 h 1 v 1 h -1 z"/>
  <path d="m 11.974576,4.559322 v 0 c 1.3,0 2.6,0.7 3.6,1.9 l -1.1,1.1 h 3 v -3 l -1.2,1.2 c -1.2,-1.4 -2.7,-2.2 -4.3,-2.2 0,0 0,0 0,0 -1.9,0 -3.5999997,1 -4.8999997,2.9 l 0.8,0.6 c 1.1,-1.6 2.4999997,-2.5 4.0999997,-2.5 z"/>
</svg>
